<?xml version="1.0" encoding="UTF-8"?>
<svg version="1.1" xmlns="http://www.w3.org/2000/svg" width="512" height="512">
<path d="M0 0 C1.54045755 1.33180026 3.06205555 2.68577641 4.5625 4.0625 C5.31789063 4.72636719 6.07328125 5.39023438 6.8515625 6.07421875 C32.90304974 30.29046376 38.20303103 70.42697145 39.5625 104.0625 C39.93481131 117.35319792 39.80388242 130.6599775 39.76528788 143.95423055 C39.75261236 149.07238163 39.75159699 154.1905362 39.74923706 159.30870056 C39.74307092 168.9587413 39.72672747 178.60873562 39.70653808 188.2587561 C39.67979958 201.32845771 39.66916703 214.39817241 39.65753365 227.46789455 C39.63884218 247.99946433 39.59896454 268.53093626 39.5625 289.0625 C8.2125 289.0625 -23.1375 289.0625 -55.4375 289.0625 C-55.48648438 277.45578125 -55.53546875 265.8490625 -55.5859375 253.890625 C-55.6213511 246.50780533 -55.65724875 239.12499319 -55.6953125 231.7421875 C-55.75554977 220.04135912 -55.81389305 208.34054473 -55.859375 196.63964844 C-55.89252006 188.1149466 -55.93247181 179.59030715 -55.98029006 171.06567454 C-56.00533361 166.56019715 -56.02717754 162.05475994 -56.04084396 157.54923248 C-54.33247974 114.32164156 -54.33247974 114.32164156 -71.09375 76.1640625 C-81.38116347 66.60453206 -94.80961913 64.51227109 -108.40625 64.81640625 C-121.03055921 65.84131795 -133.86432394 70.08867245 -142.625 79.59765625 C-161.75483821 105.61258709 -157.58337332 141.77008517 -157.74082303 172.27920747 C-157.76302461 176.39910474 -157.79024247 180.51896917 -157.81687927 184.63883972 C-157.86635276 192.40484383 -157.91145541 200.17086661 -157.95490164 207.93690652 C-158.01401156 218.45628761 -158.08004812 228.97562523 -158.14565182 239.49496746 C-158.24851516 256.0174488 -158.34227511 272.53996878 -158.4375 289.0625 C-189.7875 289.0625 -221.1375 289.0625 -253.4375 289.0625 C-253.4375 189.7325 -253.4375 90.4025 -253.4375 -11.9375 C-223.0775 -11.9375 -192.7175 -11.9375 -161.4375 -11.9375 C-161.1075 0.2725 -160.7775 12.4825 -160.4375 25.0625 C-156.9725 20.1125 -156.9725 20.1125 -153.4375 15.0625 C-151.22455584 12.56393166 -149.05842449 10.20278 -146.6875 7.875 C-146.07825684 7.27478027 -145.46901367 6.67456055 -144.84130859 6.05615234 C-139.79605252 1.20113374 -134.61788779 -2.61718528 -128.4375 -5.9375 C-127.87933594 -6.25912109 -127.32117188 -6.58074219 -126.74609375 -6.91210938 C-90.67998425 -27.67154389 -33.40235281 -25.87651406 0 0 Z " fill="#000000" transform="translate(442.4375,191.9375)"/>
<path d="M0 0 C31.35 0 62.7 0 95 0 C95 99.33 95 198.66 95 301 C63.65 301 32.3 301 0 301 C0 201.67 0 102.34 0 0 Z " fill="#000000" transform="translate(38,180)"/>
<path d="M0 0 C0.94294922 -0.020625 1.88589844 -0.04125 2.85742188 -0.0625 C17.41510942 -0.14254227 29.56183917 5.89239857 40.02734375 15.84375 C51.50697603 27.93170467 55.68377003 41.96907607 55.5234375 58.37109375 C54.64919622 74.44741944 47.0906087 87.27667391 35.4140625 97.9921875 C25.00318496 106.47024389 13.70120297 109.42993327 0.625 109.5 C-0.78942383 109.5309375 -0.78942383 109.5309375 -2.23242188 109.5625 C-16.79010942 109.64254227 -28.93683917 103.60760143 -39.40234375 93.65625 C-50.88197603 81.56829533 -55.05877003 67.53092393 -54.8984375 51.12890625 C-54.02419622 35.05258056 -46.4656087 22.22332609 -34.7890625 11.5078125 C-24.37818496 3.02975611 -13.07620297 0.07006673 0 0 Z " fill="#000000" transform="translate(84.6875,30.75)"/>
</svg>
